<svg width="156" height="40" viewBox="0 0 156 40" fill="none" xmlns="http://www.w3.org/2000/svg">
<path d="M133.069 23.4952C133.069 26.9378 130.282 29.7151 126.849 29.7151C123.416 29.7151 120.629 26.9354 120.629 23.4952C120.629 20.0551 123.413 17.2754 126.849 17.2754C130.284 17.2754 133.069 20.0551 133.069 23.4952Z" fill="#89CFF2"/>
<path d="M147.998 23.4952C147.998 26.9378 145.211 29.7151 141.778 29.7151C138.346 29.7151 135.559 26.9354 135.559 23.4952C135.559 20.0551 138.346 17.2754 141.778 17.2754C145.211 17.2754 147.998 20.0551 147.998 23.4952Z" fill="#5ABCED"/>
<path fill-rule="evenodd" clip-rule="evenodd" d="M37.6708 16.1788C39.2771 14.4708 41.6432 14.2627 42.9254 14.2627L42.9229 14.2603C47.3501 14.2603 49.8008 17.8867 49.8008 21.3704C49.8008 25.4444 47.7566 29.7168 41.902 29.7119C35.6507 29.7095 33.7057 24.6219 33.7057 20.0786C33.7057 14.8796 34.2379 12.8063 36.0959 10.9484C38.0259 9.01835 40.8195 8.23522 43.2213 7.56194C43.6705 7.436 44.106 7.31391 44.5196 7.18888C45.8018 6.8018 47.0405 6.9276 47.4783 8.34769C47.7541 9.23797 47.4058 10.3436 45.8454 10.7645C44.2801 11.1879 42.2286 11.7588 41.5657 11.9548C38.8707 12.7507 37.6708 13.7329 37.6708 16.1788ZM41.8923 25.9573C44.0479 25.9573 45.6494 24.3824 45.6494 21.8881V21.8591C45.6494 19.3673 44.0721 17.8214 41.9165 17.8214C39.761 17.8214 38.1595 19.3939 38.1595 21.8881V21.9172C38.1595 24.4114 39.7368 25.9573 41.8923 25.9573ZM24.2739 14.0624C19.7282 14.0624 16.3509 17.3235 16.3509 21.8862V21.9419C16.3509 26.5069 19.7016 29.7149 24.2231 29.7149C28.7447 29.7149 32.1461 26.4513 32.1461 21.8862V21.833C32.1461 17.2703 28.7955 14.0624 24.2739 14.0624ZM27.9947 21.8886C27.9947 24.3829 26.3932 25.9578 24.2377 25.9578C22.0821 25.9578 20.5048 24.4119 20.5048 21.9177V21.8886C20.5048 19.3944 22.1063 17.8219 24.2618 17.8219C26.4174 17.8219 27.9947 19.3678 27.9947 21.8596V21.8886ZM118.146 23.495C118.146 26.9376 115.359 29.7149 111.924 29.7149C108.489 29.7149 105.704 26.9352 105.704 23.495C105.704 20.0549 108.489 17.2752 111.924 17.2752C115.359 17.2752 118.146 20.0549 118.146 23.495ZM59.1894 14.0625C56.7629 14.0625 54.8468 14.8487 53.4969 16.1696C52.1542 17.5123 51.3075 19.4429 51.3075 21.7145C51.3075 23.9862 52.1204 26.0667 53.5646 27.5183C54.9823 28.9263 57.0677 29.7125 59.6611 29.7125C61.1441 29.7125 62.6585 29.548 64.0423 28.9916C65.3197 28.5005 65.9584 27.8787 65.9584 26.9812C65.9584 26.0329 65.252 25.2466 64.3109 25.2466C63.8565 25.2466 63.4422 25.4149 62.9513 25.6143C62.2373 25.9044 61.3612 26.2603 59.9635 26.2603C57.7814 26.2603 56.1314 25.1813 55.7274 23.1854H64.4125C65.789 23.1854 66.6019 22.3 66.6019 20.7493C66.6019 19.2784 66.1616 17.5099 64.681 16.0366C63.4666 14.8439 61.6836 14.0577 59.1918 14.0577L59.1894 14.0625ZM55.6911 20.3259C55.9935 18.5913 57.433 17.4785 59.2885 17.4785C61.3014 17.4785 62.4021 18.5768 62.5521 20.3259H55.6911ZM12.4058 14.263H12.43C13.6106 14.263 14.571 15.2331 14.571 16.4112V27.3825C14.571 28.5631 13.6106 29.5187 12.43 29.5187C11.2494 29.5187 10.289 28.5631 10.289 27.3825V18.0805H4.28205V27.3825C4.28205 28.5631 3.32403 29.5187 2.14102 29.5187C0.958017 29.5187 0 28.5631 0 27.3825V16.4112C0 15.2307 0.958017 14.263 2.14102 14.263H2.16521H12.4058ZM82.2956 14.263H75.3959C73.8912 14.263 73.0638 15.0613 72.609 16.433L69.7204 25.8995H68.9148C67.9181 25.8995 67.1052 26.7075 67.1052 27.7139C67.1052 28.7203 67.9181 29.5162 68.9148 29.5162H82.2956C83.2464 29.5162 84.4608 28.776 84.4608 27.3583V16.433C84.4608 15.0154 83.2464 14.263 82.2956 14.263ZM80.4159 25.8995H73.9638L76.1556 17.8821H80.4159V25.8995ZM89.0996 14.6111C90.4229 14.1031 91.993 14.062 93.1639 14.062V14.0596C96.7661 14.0596 100.279 15.8522 100.279 20.6108V27.5226C100.279 28.6258 99.4055 29.5136 98.3386 29.5136C97.6225 29.5136 96.7927 29.2136 96.4323 28.3209C95.5347 29.0177 94.3396 29.7144 92.443 29.7144C89.148 29.7144 86.4408 27.6363 86.4408 24.4695C86.4408 20.1584 90.6624 19.3843 92.4212 19.3843C93.0768 19.3843 95.0509 19.4544 96.2412 20.5286C96.2412 18.6005 95.3097 17.5336 93.0332 17.5336C91.7632 17.5336 90.8881 17.7952 90.1749 18.0084C89.6845 18.155 89.2707 18.2787 88.8577 18.2787C88.0037 18.2787 87.3601 17.5094 87.3601 16.5804C87.3601 15.7022 87.9262 15.0611 89.0996 14.6111ZM90.2463 24.5106C90.2463 25.8848 91.4922 26.7823 93.1808 26.7823C94.8743 26.7823 96.1178 25.8848 96.1178 24.5106C96.1178 23.1365 94.8743 22.2414 93.1808 22.2414C91.6688 22.2414 90.2463 22.9599 90.2463 24.5106Z" fill="white"/>
</svg>
