<svg version="1.2" xmlns="http://www.w3.org/2000/svg" viewBox="0 0 1188 381" width="1188" height="381">
	<title>airBaltic logo StandWithUkraine Transparent-svg</title>
	<style>
		.s0 { fill: #152649 } 
		.s1 { fill: #0057b7 } 
		.s2 { fill: #ffd700 } 
	</style>
	<g id="layout">
		<path id="Layer" fill-rule="evenodd" class="s0" d="m163.8 12.5h40.2v40.1h-40.2zm151.4 51.8q1.2 0 2.4 0q1.1 0 2.3 0.2q1.2 0.1 2.4 0.3q1.1 0.2 2.3 0.5v37.8q-1.5-0.2-2.9-0.3q-1.5-0.1-2.9-0.2q-1.5-0.1-2.9-0.1q-1.5 0-2.9 0c-18.4 0-51.3 17.1-51.3 50.7v82.8h-40.1v-168.1h39v31.1c12.6-18.2 30.4-34.7 54.6-34.7zm-170.2 58.2v113.5h-32.3l-4.4-17.8c-9.8 8.7-25.6 21.4-50.8 21.4c-30.2 0-51.5-19.5-51.5-46.3c0-17.4 6.1-37.9 43.4-50.4l48.3-16.2c6.7-2.3 7.4-2.7 7.4-7.4v-6.9c0-14.1-12.9-18.4-28.5-18.4c-26.6 0-50.8 16.3-60.2 22.6v-34.8c10.7-6.2 31.3-17.5 66.3-17.5c52.2 0 62.3 26.2 62.3 58.2zm-39.9 27.9c-2.3 1.8-3.3 2.3-10.5 4.6l-25.1 9.2c-16.9 6.2-22.7 13.9-22.7 25.9c0 16.7 14.5 20.4 21.7 20.4c6.5 0 20.4-2.2 36.6-18.8zm58.7-82.5h40.2v168.1h-40.2zm794.1 140.4c22.8 0 37.8-10.3 48.1-17.8v35.5c-8.1 4.4-26.2 13.6-54.7 13.6c-57.2 0-81.2-43.1-81.2-87.7c0-46.4 26.2-87.6 83.1-87.6c27.5 0 42.4 8.4 49.6 12.4v36.5c-8.2-6.8-21.2-17.4-43.7-17.4c-34.4 0-48.6 28.6-48.6 56.1c0 11.7 3.3 56.4 47.3 56.4zm-186.1-22.7c0 12.4 1.6 23.6 20 23.6q1.5 0 2.9-0.1q1.5-0.1 2.9-0.2q1.5-0.2 2.9-0.4q1.5-0.3 2.9-0.6v30.4q-2.3 0.3-4.7 0.6q-2.3 0.2-4.6 0.3q-2.4 0.2-4.7 0.3q-2.3 0.1-4.7 0.1c-44.7 0-52.9-22.3-52.9-51.7v-89.6h-25.1v-30.4h25.1v-55.3h40v55.3h30.3v30.4h-30.3v87.3zm-130.7-63.1v113.5h-32.6l-4.4-17.7c-9.9 8.7-25.6 21.3-50.7 21.3c-30.2 0-51.5-19.4-51.5-46.2c0-17.5 6.2-38 43.2-50.5l48.3-16.2c6.8-2.3 7.4-2.6 7.4-7.4v-6.8c0-14.2-13-18.5-28.4-18.5c-26.6 0-50.9 16.3-60.2 22.6v-34.7c10.6-6.3 31.3-17.6 66.3-17.6c52 0 62.6 26.2 62.6 58.2zm-40.3 27.9c-2.2 1.8-3.3 2.3-10.4 4.7l-25.1 9.1c-16.9 6.2-22.8 13.9-22.8 25.9c0 16.7 14.7 20.4 21.7 20.4c6.6 0 20.4-2.2 36.6-18.8zm55.8-137.8h40.1v223.4h-40.1zm161 55.4h40.1v168.1h-40.1zm-371.8 52.1q0-0.1 0.1-0.1q0 0 0 0zm0 0c17.1 4.5 49.4 13.6 49.4 54.8c0 33.8-25.6 61.2-82.9 61.2h-76.9v-223.4h71.7c18.7 0 82.9 0 82.9 54.7c0 37.4-29.2 47.4-44.2 52.7zm-68.4-16.3h29.7c38 0 41.5-22.8 41.5-30.1c0-28.1-29-28.1-37.9-28.1h-33.3zm74.6 66.2c0-16-8.8-33.9-45.5-33.9h-29.1v67.2h26.3c28.1 0 48.3-9.2 48.3-33.3zm365.6-157.3h40.1v40.1h-40.1z" />
		<path id="Layer" class="s1" d="m1074.6 245.7l-51.1 49.7c-223.5-3.6-447.1 89.4-670.6 25.5l-83-32c268.2 72.5 536.5-43.2 804.7-43.2z" />
		<path id="Layer" class="s2" d="m1183.3 317.7l-83 48.1c-178.8-55.2-357.7 15-536.5 8l-51.1-30.5c223.6 3.5 447.1-89.5 670.6-25.6z" />
	</g>
</svg>